<svg xmlns="http://www.w3.org/2000/svg" width="20.866" height="20.866" viewBox="0 0 20.866 20.866">
  <g id="cockroach" transform="translate(0)">
    <path id="Union_2" data-name="Union 2" d="M3.056,17.81A10.433,10.433,0,1,1,20.117,6.547a.306.306,0,1,1-.567.228,9.749,9.749,0,1,0,.395,1.2.306.306,0,1,1,.592-.152A10.434,10.434,0,0,1,3.056,17.81Zm2.684-.136a.628.628,0,0,1-.126-.944L16.13,4.918a.627.627,0,0,1,.953.017,8.639,8.639,0,0,1,1.79,3.7,8.908,8.908,0,0,1-.2,4.427,8.353,8.353,0,0,1-5.742,5.65,9.247,9.247,0,0,1-2.507.353A8.542,8.542,0,0,1,5.74,17.673Zm.33-.537a.014.014,0,0,0,0,.013.015.015,0,0,0,.007.01,7.945,7.945,0,0,0,4.354,1.29,8.631,8.631,0,0,0,2.339-.329A7.793,7.793,0,0,0,16.1,16.185a7.714,7.714,0,0,0,1.986-3.3,8.069,8.069,0,0,0-1.474-7.56.017.017,0,0,0-.012-.006.012.012,0,0,0-.013.006L12.94,9.42l0,.077h.888l.451-1.168a.305.305,0,0,1,.285-.2h.527a.306.306,0,0,1,0,.612h-.317L14.32,9.914a.306.306,0,0,1-.285.2H12.908l-.044.951h1.951a.305.305,0,1,1,0,.611H12.835l-.044.952h1.244a.306.306,0,0,1,.285.2l.451,1.169h.317a.306.306,0,0,1,0,.612h-.526a.305.305,0,0,1-.286-.2l-.451-1.168H12.763l-.074,1.59a.306.306,0,0,1-.305.292h-.015a.306.306,0,0,1-.291-.32l.216-4.652-1.573,1.767V17.4a1.9,1.9,0,0,0,1.256-1.32.306.306,0,0,1,.592.155A2.511,2.511,0,0,1,10.846,18a1.492,1.492,0,0,1-.413.058A1.476,1.476,0,0,1,10.024,18l-.018,0A2.5,2.5,0,0,1,8.2,15.711L8.155,14.8Zm2.667-3,.07,1.542a1.884,1.884,0,0,0,1.3,1.708V12.6ZM4.256,16.158a.626.626,0,0,1-.473-.228,8.643,8.643,0,0,1-1.978-5.474.306.306,0,0,1,.305-.307h0a.306.306,0,0,1,.306.305A8.026,8.026,0,0,0,4.255,15.54a.017.017,0,0,0,.013.006.019.019,0,0,0,.012-.005l3.444-3.869H6.016a.306.306,0,1,1,0-.612H7.984l-.044-.951H6.8a.306.306,0,0,1-.285-.2L6.059,8.746H5.742a.306.306,0,0,1,0-.612h.527a.306.306,0,0,1,.286.2L7.005,9.5h.907L7.839,7.891A3.257,3.257,0,0,1,9.246,5.049l.013-.009c.053-.036.107-.07.162-.1v-.9a.256.256,0,0,0-.513,0v.049a.306.306,0,1,1-.612,0V4.035a.868.868,0,1,1,1.736,0v.678a2.075,2.075,0,0,1,.766-.008v-.67a.868.868,0,1,1,1.736,0v.049a.306.306,0,1,1-.612,0V4.035a.256.256,0,0,0-.513,0v.881a1.943,1.943,0,0,1,.217.133,3.255,3.255,0,0,1,.994,1.122L14.8,3.729a.015.015,0,0,0,0-.013.013.013,0,0,0-.006-.01A8.088,8.088,0,0,0,8.1,2.744,7.74,7.74,0,0,0,2.78,7.98,8.856,8.856,0,0,0,2.509,9.2a.306.306,0,1,1-.6-.091,9.484,9.484,0,0,1,.289-1.3,8.355,8.355,0,0,1,5.742-5.65,8.691,8.691,0,0,1,7.191,1.036.628.628,0,0,1,.126.944L4.736,15.948a.626.626,0,0,1-.469.21ZM8.451,7.863l.13,2.847,1.528-1.718V7.645H8.45C8.447,7.717,8.447,7.79,8.451,7.863Zm2.27.443.589-.661h-.589ZM9.607,5.542l-.013.009A2.651,2.651,0,0,0,8.542,7.033h3.311l.329-.369a2.648,2.648,0,0,0-.908-1.115,1.46,1.46,0,0,0-1.667-.007Z" transform="translate(0 0)" fill="#bbb"/>
  </g>
</svg>
