<svg id="digging" xmlns="http://www.w3.org/2000/svg" width="20.866" height="20.875" viewBox="0 0 20.866 20.875">
  <path id="Path_187" data-name="Path 187" d="M49,92.25a1.628,1.628,0,0,0-1.626,1.626.358.358,0,1,0,.716,0A.91.91,0,0,1,49,92.966a.358.358,0,1,0,0-.716Z" transform="translate(-40.208 -76.594)" fill="#bbb"/>
  <path id="Path_188" data-name="Path 188" d="M71.2,83.764a1.239,1.239,0,0,0-.911-.28.358.358,0,1,0,.068.713.529.529,0,0,1,.576.476.358.358,0,0,0,.356.324.24.24,0,0,0,.034,0,.358.358,0,0,0,.323-.391A1.237,1.237,0,0,0,71.2,83.764Z" transform="translate(-58.427 -69.313)" fill="#bbb"/>
  <path id="Path_189" data-name="Path 189" d="M30.931,30.435a2.744,2.744,0,0,0-2.723-2.44q-.126,0-.253.012a2.782,2.782,0,0,0-2.7-2.745,3.83,3.83,0,0,0-.6-1.029,2.275,2.275,0,0,0-.13-.469l-2.053-5.018a.883.883,0,0,0-1.347-.371l-1.506,1.133-.143-.191a.336.336,0,0,0-.443-.088l-4.453-5.921-.393-2.375a.722.722,0,0,0-1.011-.541.743.743,0,0,0-.944-.044L10.81,11.42a.743.743,0,0,0-.22.919.722.722,0,0,0,.239,1.121L13,14.5l4.453,5.922a.339.339,0,0,0-.039.449l.143.19-1.506,1.133a.883.883,0,0,0-.017,1.4l1.5,1.187a2.8,2.8,0,0,0-1.843,2.08h-.015A2.135,2.135,0,0,0,13.777,28,2.744,2.744,0,0,0,11.244,30.4H10.59a.34.34,0,1,0,0,.679H30.775a.339.339,0,0,0,.155-.641ZM14.2,13.922l4.3,5.714-.5.373L13.7,14.3Zm4.111,7-.143-.19L19.141,20,20.4,21.668l-.978.735ZM13.894,13.3l-.711.534-1.657-.79a.736.736,0,0,0,.393-.145l1.426-1.072a.738.738,0,0,0,.248-.336Zm-2.676-1.335,1.426-1.072a.062.062,0,0,1,.088.012l.218.291a.063.063,0,0,1-.012.088l-1.426,1.072a.063.063,0,0,1-.088-.012l-.109-.145-.109-.145a.063.063,0,0,1,.012-.088ZM16.379,22.9a.2.2,0,0,1,.081-.16L17.967,21.6l1.113,1.48a.34.34,0,0,0,.476.067l1.521-1.144a.34.34,0,0,0,.067-.476l-1.113-1.48,1.506-1.133a.2.2,0,0,1,.311.086l1.775,4.339a3.84,3.84,0,0,0-5.187,1.282l-1.98-1.567a.2.2,0,0,1-.076-.162Zm-2.424,5.779.036,0a.338.338,0,0,0,.321-.214,1.453,1.453,0,0,1,1.612-.9.34.34,0,0,0,.4-.311,2.105,2.105,0,0,1,2.091-1.941c.061,0,.121,0,.181.009a.341.341,0,0,0,.327-.175,3.154,3.154,0,0,1,5.15-.554.339.339,0,0,0,.035.04,3.159,3.159,0,0,1,.589,1.081.339.339,0,0,0,.346.238l.035,0c.034,0,.068-.005.1-.005a2.083,2.083,0,0,1,2.07,2.428.34.34,0,0,0,.423.38A2.05,2.05,0,0,1,30.238,30.4H11.93A2.061,2.061,0,0,1,13.955,28.674Z" transform="translate(-10.25 -10.2)" fill="#bbb"/>
</svg>
