<svg id="Group_331" data-name="Group 331" xmlns="http://www.w3.org/2000/svg" width="20.866" height="20.866" viewBox="0 0 20.866 20.866">
  <g id="herb" transform="translate(5.958 5.133)">
    <g id="Group_329" data-name="Group 329" transform="translate(0 0.85)">
      <path id="Path_190" data-name="Path 190" d="M175.984,292.636l.279-1.114a2.633,2.633,0,0,1,1.577-1.806l.118-.047a.228.228,0,0,1,.279.333l-.479.766a2.638,2.638,0,0,1-.371.466Zm0,0" transform="translate(-171.548 -283.201)" fill="#bbb"/>
      <path id="Path_191" data-name="Path 191" d="M159.984,183.932l.9-.72a2.632,2.632,0,0,1,2.347-.484l.121.034a.229.229,0,0,1,.02.434l-.843.321a2.639,2.639,0,0,1-.577.147Zm0,0" transform="translate(-155.951 -178.88)" fill="#bbb"/>
      <path id="Path_192" data-name="Path 192" d="M160.574,138.317l.223-.665a2.745,2.745,0,0,1,1.36-1.575.287.287,0,0,1,.368.416l-.233.346a2.746,2.746,0,0,1-.633.665Zm0,0" transform="translate(-156.526 -133.466)" fill="#bbb"/>
      <path id="Path_193" data-name="Path 193" d="M175.984,39.36l.461-.36a2.291,2.291,0,0,1,1.671-.469.239.239,0,0,1,.064.459l-.321.134a2.292,2.292,0,0,1-.746.172Zm0,0" transform="translate(-171.548 -38.395)" fill="#bbb"/>
      <path id="Path_194" data-name="Path 194" d="M66.619,34.686l-.527-.411a2.615,2.615,0,0,0-1.908-.537.273.273,0,0,0-.074.524l.367.153a2.613,2.613,0,0,0,.852.2Zm0,0" transform="translate(-62.329 -33.721)" fill="#bbb"/>
      <path id="Path_195" data-name="Path 195" d="M82.649,140.452l-.223-.666a2.745,2.745,0,0,0-1.36-1.575.287.287,0,0,0-.368.416l.233.346a2.741,2.741,0,0,0,.633.665Zm0,0" transform="translate(-78.616 -135.547)" fill="#bbb"/>
      <path id="Path_196" data-name="Path 196" d="M19.561,183.932l-.9-.72a2.632,2.632,0,0,0-2.347-.484l-.121.034a.229.229,0,0,0-.02.434l.845.32a2.638,2.638,0,0,0,.577.147Zm0,0" transform="translate(-15.625 -178.88)" fill="#bbb"/>
      <path id="Path_197" data-name="Path 197" d="M87.565,291.012l-.279-1.114a2.633,2.633,0,0,0-1.577-1.806l-.118-.047a.228.228,0,0,0-.279.333l.479.766a2.645,2.645,0,0,0,.371.466Zm0,0" transform="translate(-83.129 -281.617)" fill="#bbb"/>
      <path id="Path_198" data-name="Path 198" d="M175.984,345.412l.657-.418a6.356,6.356,0,0,1,3.411-.993h.2a.241.241,0,0,1,.095.462l-.78.334a6.349,6.349,0,0,1-2.016.5Zm0,0" transform="translate(-171.548 -336.178)" fill="#bbb"/>
      <path id="Path_199" data-name="Path 199" d="M4.514,353.412l-.657-.418A6.356,6.356,0,0,0,.445,352H.24a.241.241,0,0,0-.095.462l.78.334a6.349,6.349,0,0,0,2.017.5Zm0,0" transform="translate(0 -343.976)" fill="#bbb"/>
    </g>
    <path id="Path_200" data-name="Path 200" d="M124.55.2a2.488,2.488,0,0,0-1.3.652l.119-.617a.2.2,0,0,0-.4-.076l-.128.667c-.018.094-.034.188-.051.282a2.408,2.408,0,0,0-.884-.985.2.2,0,1,0-.212.343,1.94,1.94,0,0,1,.924,1.719v0a25.658,25.658,0,0,0,.134,7.879l.217,1.256a.2.2,0,0,0,.2.168.177.177,0,0,0,.034,0,.2.2,0,0,0,.164-.233L123.154,10a25.259,25.259,0,0,1-.07-8.178A2,2,0,0,1,124.616.6a.2.2,0,1,0-.066-.4Zm0,0" transform="translate(-118.534 0.001)" fill="#bbb"/>
  </g>
  <path id="Path_209" data-name="Path 209" d="M.146.018,2.487,0,2.342,18.7,0,18.721Z" transform="translate(15.772 2.644) rotate(42)" fill="#fff"/>
  <g id="cockroach" transform="translate(0 0)">
    <path id="Union_2" data-name="Union 2" d="M3.056,17.81A10.433,10.433,0,1,1,20.117,6.547a.306.306,0,1,1-.567.228,9.745,9.745,0,1,0,.395,1.2.306.306,0,1,1,.592-.152A10.434,10.434,0,0,1,3.056,17.81Zm2.684-.136a.628.628,0,0,1-.126-.944L16.13,4.918a.628.628,0,0,1,.953.017,8.639,8.639,0,0,1,1.79,3.7,8.908,8.908,0,0,1-.2,4.427,8.353,8.353,0,0,1-5.742,5.65,9.252,9.252,0,0,1-2.507.353A8.543,8.543,0,0,1,5.74,17.674ZM8.155,14.8,6.07,17.137a.014.014,0,0,0,0,.013.014.014,0,0,0,.007.01,7.946,7.946,0,0,0,4.353,1.29,8.63,8.63,0,0,0,2.339-.329,7.739,7.739,0,0,0,5.321-5.236,8.069,8.069,0,0,0-1.474-7.56.017.017,0,0,0-.012-.006.012.012,0,0,0-.013.006L12.936,9.5l-1.994,2.174-.221.241a13.806,13.806,0,0,0-1.133,1.273L8.155,14.8l1.433-1.61C9.239,13.583,8.775,14.106,8.155,14.8Zm-3.9,1.363a.626.626,0,0,1-.473-.228,8.643,8.643,0,0,1-1.978-5.474.306.306,0,0,1,.305-.307h0a.306.306,0,0,1,.306.305A8.026,8.026,0,0,0,4.255,15.54a.016.016,0,0,0,.013.006.02.02,0,0,0,.012-.005l3.444-3.869c1.64-1.857,4.17-4.7,4.9-5.5L14.8,3.729a.015.015,0,0,0,0-.013.012.012,0,0,0-.006-.01A8.087,8.087,0,0,0,8.1,2.744,7.739,7.739,0,0,0,2.78,7.98,8.842,8.842,0,0,0,2.509,9.2a.306.306,0,1,1-.6-.09,9.486,9.486,0,0,1,.289-1.3,8.355,8.355,0,0,1,5.742-5.65,8.692,8.692,0,0,1,7.191,1.036.628.628,0,0,1,.126.944L4.736,15.948a.626.626,0,0,1-.469.21ZM8.581,10.71l1.528-1.718Zm2.14-2.4.589-.661Zm1.133-1.272.064-.072A.908.908,0,0,0,11.853,7.034Zm-1.133,4.879L9.588,13.185ZM12.965,9.57h0Zm0,0Zm0,0s0,0,0,0S12.964,9.569,12.964,9.568Zm0,0h0Zm0,0v0Zm0,0Zm0,0h0Zm0,0Zm0,0v0Zm0,0Zm0-.007v0Zm-.006-.016c0,.006,0,.011.006.016A.091.091,0,0,1,12.953,9.541Zm0-.008,0,.008Zm0,0s0,0,0,0S12.949,9.531,12.949,9.531Zm0-.005,0,.005Zm0,0v0Zm0,0,0,0ZM12.936,9.5l.008.021Z" fill="#bbb"/>
  </g>
</svg>
