<svg xmlns="http://www.w3.org/2000/svg" width="20.866" height="17.148" viewBox="0 0 20.866 17.148">
  <path id="XMLID_46_" d="M14.332,45.786c-2.011,1.223-2.236,3.846-2.156,5.506a8.6,8.6,0,0,1,4.49-2.93,9.622,9.622,0,0,0-4.118,3.518,10.3,10.3,0,0,0-1.068,2.345,14.5,14.5,0,0,0-1.135-2.8,12.474,12.474,0,0,0-5.065-4.865,11.152,11.152,0,0,1,5.591,4.132c.23-2.143.135-5.556-2.375-7.29A18.759,18.759,0,0,0,.525,40.625a.465.465,0,0,0-.449.712,9.325,9.325,0,0,1,1.442,4.555c.112,2.124.243,6.048,7.826,6.635A12.047,12.047,0,0,1,11.23,57.65a.133.133,0,0,0,.262.018c.14-.57.507-3.434,1.775-4.892,5.866-.111,6.142-3.127,6.325-4.757a7.221,7.221,0,0,1,1.193-3.27.464.464,0,0,0-.421-.723A14.281,14.281,0,0,0,14.332,45.786Z" transform="translate(0 -40.621)" fill="#95b85e"/>
</svg>
