<svg id="pesticide" xmlns="http://www.w3.org/2000/svg" width="20.866" height="23.957" viewBox="0 0 20.866 23.957">
  <path id="Path_163" data-name="Path 163" d="M21.872,16h3.872a3.863,3.863,0,0,1,3.872,3.854V30.259A1.545,1.545,0,0,1,28.068,31.8H19.549A1.545,1.545,0,0,1,18,30.259V19.854A3.863,3.863,0,0,1,21.872,16Z" transform="translate(-12.99 -10.156)" fill="rgba(187,187,187,0.48)"/>
  <path id="Path_164" data-name="Path 164" d="M24.113,4.864a1.741,1.741,0,0,0-1.239.513L21.809,6.443,21.5,6.136a.386.386,0,0,0-.546,0l-.935.935a4.234,4.234,0,0,0-1.11-.5V6.023a1.159,1.159,0,0,0-1.159-1.159h-.386V3.318h.386a1.159,1.159,0,1,0,0-2.318H13.887a1.159,1.159,0,0,0,0,2.318h.386V4.864h-.386a1.159,1.159,0,0,0-1.159,1.159v.551A4.255,4.255,0,0,0,9.637,10.66V21.093a1.934,1.934,0,0,0,1.932,1.932h8.5A1.934,1.934,0,0,0,22,21.093V10.66a4.217,4.217,0,0,0-.39-1.768l1.05-1.05a.386.386,0,0,0,0-.546l-.306-.306,1.066-1.066a.98.98,0,0,1,1.672.693V22.252a1.934,1.934,0,0,1-1.932,1.932H8.864a1.934,1.934,0,0,1-1.932-1.932V18.775H7.7a.386.386,0,0,0,.386-.386V11.433a.386.386,0,0,0-.386-.386H6.932V9.368a1.151,1.151,0,0,1,.34-.82L9.524,6.3,8.977,5.75,6.725,8a1.92,1.92,0,0,0-.566,1.366v1.678H5.386A.386.386,0,0,0,5,11.433v6.955a.386.386,0,0,0,.386.386h.773v3.478a2.708,2.708,0,0,0,2.7,2.7h14.3a2.708,2.708,0,0,0,2.7-2.7V6.616A1.754,1.754,0,0,0,24.113,4.864ZM13.5,2.159a.386.386,0,0,1,.386-.386h3.864a.386.386,0,1,1,0,.773H13.887A.386.386,0,0,1,13.5,2.159Zm1.546,1.159h1.546V4.864H15.046ZM13.5,6.023a.386.386,0,0,1,.386-.386h3.864a.386.386,0,0,1,.386.386v.406c-.128-.012-.256-.02-.386-.02H13.887c-.131,0-.259.008-.386.02Zm7.728,15.07a1.159,1.159,0,0,1-1.159,1.159h-8.5a1.159,1.159,0,0,1-1.159-1.159h4.25V20.32H10.41v-.773H13.5v-.773H10.41V18h3.864v-.773H10.41v-.773H13.5v-.773H10.41v-.773h4.25v-.773H10.41v-.773H13.5v-.773H10.41v-.773h3.864v-.773H10.41V10.66a3.481,3.481,0,0,1,3.478-3.478h3.864a3.481,3.481,0,0,1,3.478,3.478ZM21.211,8.2a4.285,4.285,0,0,0-.574-.652l.592-.592.613.613ZM5.773,11.819H7.318V18H5.773Z" transform="translate(-5 -1)" fill="#bbb"/>
</svg>
