<svg id="tractor-side-view" xmlns="http://www.w3.org/2000/svg" width="20.866" height="16.58" viewBox="0 0 20.866 16.58">
  <path id="Path_147" data-name="Path 147" d="M3.938,63.983A3.938,3.938,0,1,0,7.875,67.92,3.942,3.942,0,0,0,3.938,63.983Zm0,6.518a2.58,2.58,0,1,1,2.58-2.58A2.583,2.583,0,0,1,3.938,70.5ZM15.35,65.772a3.005,3.005,0,1,0,3.005,3.005A3.009,3.009,0,0,0,15.35,65.772Zm0,4.82a1.815,1.815,0,1,1,1.815-1.815A1.817,1.817,0,0,1,15.35,70.592Zm-7.04-2.98h3.75a3.5,3.5,0,0,0-.268,1.342l-3.576,0a4.325,4.325,0,0,0,.112-.967C8.329,67.862,8.321,67.737,8.311,67.612ZM20.728,64.4a.553.553,0,0,0-.553-.553l-6.955-1.52-2.275-6.631a.553.553,0,0,0-.536-.416H3.025a.553.553,0,1,0,0,1.105h.936v5.03A3.1,3.1,0,0,0,.276,64.466v1.071a4.316,4.316,0,0,1,8,1.523h3.917a3.5,3.5,0,0,1,6.6,1.615h1.044c.02,0-.65.007-.63.007h1.105a.553.553,0,0,0,.553-.552ZM9.088,62.141c-.654-1.967-3.462-2.162-3.731-2.162h-.29v-3.6H9.98l2.067,5.757Z" transform="translate(0 -55.278)" fill="#bbb"/>
</svg>
