<svg xmlns="http://www.w3.org/2000/svg" width="20.866" height="17.604" viewBox="0 0 20.866 17.604">
  <g id="watering" transform="translate(0)">
    <g id="Group_328" data-name="Group 328" transform="translate(0)">
      <path id="Path_165" data-name="Path 165" d="M446.488,40.744l.3-.2a.284.284,0,0,0-.319-.469l-.3.2a.284.284,0,0,0,.319.469Z" transform="translate(-427.673 -40.023)" fill="#bbb"/>
      <path id="Path_166" data-name="Path 166" d="M398.385,69.3l.54-.368a.284.284,0,0,0-.319-.469l-.54.368a.284.284,0,0,0,.319.469Z" transform="translate(-381.653 -67.34)" fill="#bbb"/>
      <path id="Path_167" data-name="Path 167" d="M356.686,101.9l.3-.2a.284.284,0,1,0-.319-.469l-.3.2a.284.284,0,1,0,.319.469Z" transform="translate(-341.676 -98.864)" fill="#bbb"/>
      <path id="Path_168" data-name="Path 168" d="M356.366,206.68l.3.2a.284.284,0,1,0,.319-.469l-.3-.2a.284.284,0,1,0-.319.469Z" transform="translate(-341.675 -199.367)" fill="#bbb"/>
      <path id="Path_169" data-name="Path 169" d="M398.054,235.069l.54.368a.284.284,0,0,0,.319-.469l-.54-.368a.284.284,0,1,0-.319.469Z" transform="translate(-381.642 -226.589)" fill="#bbb"/>
      <path id="Path_170" data-name="Path 170" d="M446.168,267.834l.3.2a.284.284,0,1,0,.319-.469l-.3-.2a.284.284,0,0,0-.319.469Z" transform="translate(-427.672 -258.02)" fill="#bbb"/>
      <path id="Path_171" data-name="Path 171" d="M356.886,156.347h-.36a.284.284,0,0,0,0,.567h.36a.284.284,0,1,0,0-.567Z" transform="translate(-341.672 -151.594)" fill="#bbb"/>
      <path id="Path_172" data-name="Path 172" d="M406.569,156.631a.284.284,0,0,0,.284.284h.651a.284.284,0,1,0,0-.567h-.651A.284.284,0,0,0,406.569,156.631Z" transform="translate(-389.691 -151.594)" fill="#bbb"/>
      <path id="Path_173" data-name="Path 173" d="M464.622,156.631a.284.284,0,0,0,.284.284h.36a.284.284,0,0,0,0-.567h-.36A.284.284,0,0,0,464.622,156.631Z" transform="translate(-445.548 -151.594)" fill="#bbb"/>
      <path id="Path_174" data-name="Path 174" d="M43.22,40.543l.3.2a.284.284,0,0,0,.319-.469l-.3-.2a.284.284,0,1,0-.319.469Z" transform="translate(-41.466 -40.024)" fill="#bbb"/>
      <path id="Path_175" data-name="Path 175" d="M84.908,68.932l.54.368a.284.284,0,1,0,.319-.469l-.54-.368a.284.284,0,0,0-.319.469Z" transform="translate(-81.314 -67.34)" fill="#bbb"/>
      <path id="Path_176" data-name="Path 176" d="M133.022,101.7l.3.2a.284.284,0,1,0,.319-.469l-.3-.2a.284.284,0,1,0-.319.469Z" transform="translate(-127.463 -98.864)" fill="#bbb"/>
      <path id="Path_177" data-name="Path 177" d="M133.319,206.212l-.3.2a.284.284,0,1,0,.319.469l.3-.2a.284.284,0,1,0-.319-.469Z" transform="translate(-127.463 -199.368)" fill="#bbb"/>
      <path id="Path_178" data-name="Path 178" d="M85.459,234.6l-.54.368a.284.284,0,0,0,.319.469l.54-.368a.284.284,0,1,0-.319-.469Z" transform="translate(-81.325 -226.589)" fill="#bbb"/>
      <path id="Path_179" data-name="Path 179" d="M43.517,267.365l-.3.2a.284.284,0,1,0,.319.469l.3-.2a.284.284,0,1,0-.319-.469Z" transform="translate(-41.466 -258.02)" fill="#bbb"/>
      <path id="Path_180" data-name="Path 180" d="M131.533,156.914h.36a.284.284,0,1,0,0-.567h-.36a.284.284,0,1,0,0,.567Z" transform="translate(-125.881 -151.594)" fill="#bbb"/>
      <path id="Path_181" data-name="Path 181" d="M73.494,156.914h.651a.284.284,0,0,0,0-.567h-.651a.284.284,0,1,0,0,.567Z" transform="translate(-70.441 -151.594)" fill="#bbb"/>
      <path id="Path_182" data-name="Path 182" d="M23.154,156.914h.36a.284.284,0,1,0,0-.567h-.36a.284.284,0,1,0,0,.567Z" transform="translate(-22.005 -151.594)" fill="#bbb"/>
      <path id="Path_183" data-name="Path 183" d="M19.551,129h-3.59a2.135,2.135,0,0,0-1.933-1.834v-1.646a.306.306,0,1,0-.611,0v1.639H7.373V123.1a.545.545,0,0,1,.541-.549h4.962a.546.546,0,0,1,.541.549v1.053a.306.306,0,1,0,.611,0V123.1a1.162,1.162,0,0,0-1.152-1.17H11.95V120.86a1.108,1.108,0,0,0,1.088-1.115V118.1a1.108,1.108,0,0,0-1.1-1.115H8.849a1.108,1.108,0,0,0-1.1,1.115v1.649a1.108,1.108,0,0,0,1.088,1.115v1.073H7.913a1.162,1.162,0,0,0-1.152,1.17v4.066A2.135,2.135,0,0,0,4.828,129H3.365a.31.31,0,0,0,0,.621H19.551a.715.715,0,0,1,0,1.43H1.315a.715.715,0,0,1,0-1.43h.619a.31.31,0,0,0,0-.621H1.315a1.336,1.336,0,0,0,0,2.671H19.551a1.336,1.336,0,0,0,0-2.671ZM8.362,119.745V118.1a.491.491,0,0,1,.487-.495h3.09a.491.491,0,0,1,.487.495v1.649a.491.491,0,0,1-.487.495H8.849A.491.491,0,0,1,8.362,119.745Zm1.088,1.115h1.888v1.073H9.45Zm-2.527,6.922h6.941A1.515,1.515,0,0,1,15.341,129H5.448A1.515,1.515,0,0,1,6.924,127.783Z" transform="translate(0 -114.071)" fill="#bbb"/>
    </g>
  </g>
</svg>
